 
<svg xmlns="http://www.w3.org/2000/svg" viewBox="0 0 1440 320">
  <path fill="#49108B" fill-opacity="1" d="M0,128L6.2,122.7C12.3,117,25,107,37,112C49.2,117,62,139,74,160C86.2,181,98,203,111,197.3C123.1,192,135,160,148,154.7C160,149,172,171,185,181.3C196.9,192,209,192,222,192C233.8,192,246,192,258,197.3C270.8,203,283,213,295,218.7C307.7,224,320,224,332,208C344.6,192,357,160,369,165.3C381.5,171,394,213,406,224C418.5,235,431,213,443,208C455.4,203,468,213,480,213.3C492.3,213,505,203,517,170.7C529.2,139,542,85,554,96C566.2,107,578,181,591,186.7C603.1,192,615,128,628,112C640,96,652,128,665,154.7C676.9,181,689,203,702,213.3C713.8,224,726,224,738,186.7C750.8,149,763,75,775,64C787.7,53,800,107,812,149.3C824.6,192,837,224,849,208C861.5,192,874,128,886,128C898.5,128,911,192,923,224C935.4,256,948,256,960,218.7C972.3,181,985,107,997,101.3C1009.2,96,1022,160,1034,165.3C1046.2,171,1058,117,1071,96C1083.1,75,1095,85,1108,106.7C1120,128,1132,160,1145,154.7C1156.9,149,1169,107,1182,85.3C1193.8,64,1206,64,1218,74.7C1230.8,85,1243,107,1255,138.7C1267.7,171,1280,213,1292,197.3C1304.6,181,1317,107,1329,85.3C1341.5,64,1354,96,1366,117.3C1378.5,139,1391,149,1403,138.7C1415.4,128,1428,96,1434,80L1440,64L1440,320L1433.8,320C1427.7,320,1415,320,1403,320C1390.8,320,1378,320,1366,320C1353.8,320,1342,320,1329,320C1316.9,320,1305,320,1292,320C1280,320,1268,320,1255,320C1243.1,320,1231,320,1218,320C1206.2,320,1194,320,1182,320C1169.2,320,1157,320,1145,320C1132.3,320,1120,320,1108,320C1095.4,320,1083,320,1071,320C1058.5,320,1046,320,1034,320C1021.5,320,1009,320,997,320C984.6,320,972,320,960,320C947.7,320,935,320,923,320C910.8,320,898,320,886,320C873.8,320,862,320,849,320C836.9,320,825,320,812,320C800,320,788,320,775,320C763.1,320,751,320,738,320C726.2,320,714,320,702,320C689.2,320,677,320,665,320C652.3,320,640,320,628,320C615.4,320,603,320,591,320C578.5,320,566,320,554,320C541.5,320,529,320,517,320C504.6,320,492,320,480,320C467.7,320,455,320,443,320C430.8,320,418,320,406,320C393.8,320,382,320,369,320C356.9,320,345,320,332,320C320,320,308,320,295,320C283.1,320,271,320,258,320C246.2,320,234,320,222,320C209.2,320,197,320,185,320C172.3,320,160,320,148,320C135.4,320,123,320,111,320C98.5,320,86,320,74,320C61.5,320,49,320,37,320C24.6,320,12,320,6,320L0,320Z"></path>
</svg>